<svg width="24" height="26" viewBox="0 0 24 26" fill="none" xmlns="http://www.w3.org/2000/svg">
<g id="android_24px">
<g id="icon/action/android_24px">
<path fill-rule="evenodd" clip-rule="evenodd" d="M16.83 1.86L15.53 3.16C17.03 4.25 18 6.01 18 8H6C6 6.01 6.97 4.26 8.45 3.17L7.14 1.86C6.94 1.66 6.94 1.35 7.14 1.15C7.34 0.95 7.65 0.95 7.85 1.15L9.34 2.63C10.14 2.23 11.04 2 12 2C12.95 2 13.85 2.23 14.64 2.63L16.12 1.15C16.32 0.95 16.63 0.95 16.83 1.15C17.03 1.35 17.03 1.66 16.83 1.86ZM2 10.5C2 9.67 2.67 9 3.5 9C4.33 9 5 9.67 5 10.5V17.5C5 18.33 4.33 19 3.5 19C2.67 19 2 18.33 2 17.5V10.5ZM7 20C6.45 20 6 19.55 6 19V9H18V19C18 19.55 17.55 20 17 20H16V23.5C16 24.33 15.33 25 14.5 25C13.67 25 13 24.33 13 23.5V20H11V23.5C11 24.33 10.33 25 9.5 25C8.67 25 8 24.33 8 23.5V20H7ZM20.5 9C19.67 9 19 9.67 19 10.5V17.5C19 18.33 19.67 19 20.5 19C21.33 19 22 18.33 22 17.5V10.5C22 9.67 21.33 9 20.5 9ZM10 6H9V5H10V6ZM14 6H15V5H14V6Z" fill="black" fill-opacity="0.54"/>
<path d="M15.53 3.16L15.3532 2.98322L15.1463 3.19019L15.383 3.36224L15.53 3.16ZM16.83 1.86L17.0068 2.03678L17.0068 2.03678L16.83 1.86ZM18 8V8.25H18.25V8H18ZM6 8H5.75V8.25H6V8ZM8.45 3.17L8.59825 3.3713L8.8324 3.19885L8.62678 2.99322L8.45 3.17ZM7.14 1.86L6.96322 2.03678L6.96322 2.03678L7.14 1.86ZM7.14 1.15L6.96322 0.973223L6.96322 0.973223L7.14 1.15ZM7.85 1.15L7.67322 1.32678L7.67382 1.32737L7.85 1.15ZM9.34 2.63L9.16382 2.80737L9.29121 2.9339L9.4518 2.85361L9.34 2.63ZM14.64 2.63L14.5271 2.85304L14.6887 2.93487L14.8168 2.80678L14.64 2.63ZM16.12 1.15L16.2968 1.32678L16.2968 1.32678L16.12 1.15ZM16.83 1.15L17.0068 0.973223L17.0068 0.973223L16.83 1.15ZM6 9V8.75H5.75V9H6ZM18 9H18.25V8.75H18V9ZM16 20V19.75H15.75V20H16ZM13 20H13.25V19.75H13V20ZM11 20V19.75H10.75V20H11ZM8 20H8.25V19.75H8V20ZM9 6H8.75V6.25H9V6ZM10 6V6.25H10.25V6H10ZM9 5V4.75H8.75V5H9ZM10 5H10.25V4.75H10V5ZM15 6V6.25H15.25V6H15ZM14 6H13.75V6.25H14V6ZM15 5H15.25V4.75H15V5ZM14 5V4.75H13.75V5H14ZM15.7068 3.33678L17.0068 2.03678L16.6532 1.68322L15.3532 2.98322L15.7068 3.33678ZM18.25 8C18.25 5.92654 17.2389 4.09274 15.677 2.95776L15.383 3.36224C16.8211 4.40726 17.75 6.09346 17.75 8H18.25ZM6 8.25H18V7.75H6V8.25ZM8.30175 2.9687C6.76121 4.10328 5.75 5.92636 5.75 8H6.25C6.25 6.09364 7.17879 4.41672 8.59825 3.3713L8.30175 2.9687ZM6.96322 2.03678L8.27322 3.34678L8.62678 2.99322L7.31678 1.68322L6.96322 2.03678ZM6.96322 0.973223C6.66559 1.27085 6.66559 1.73915 6.96322 2.03678L7.31678 1.68322C7.21441 1.58085 7.21441 1.42915 7.31678 1.32678L6.96322 0.973223ZM8.02678 0.973223C7.72915 0.675592 7.26085 0.675592 6.96322 0.973223L7.31678 1.32678C7.41915 1.22441 7.57085 1.22441 7.67322 1.32678L8.02678 0.973223ZM9.51618 2.45263L8.02618 0.972629L7.67382 1.32737L9.16382 2.80737L9.51618 2.45263ZM12 1.75C10.9994 1.75 10.0613 1.98984 9.2282 2.40639L9.4518 2.85361C10.2187 2.47016 11.0806 2.25 12 2.25V1.75ZM14.7529 2.40696C13.9291 1.98986 12.9906 1.75 12 1.75V2.25C12.9094 2.25 13.7709 2.47014 14.5271 2.85304L14.7529 2.40696ZM15.9432 0.973223L14.4632 2.45322L14.8168 2.80678L16.2968 1.32678L15.9432 0.973223ZM17.0068 0.973223C16.7091 0.675592 16.2409 0.675592 15.9432 0.973223L16.2968 1.32678C16.3991 1.22441 16.5509 1.22441 16.6532 1.32678L17.0068 0.973223ZM17.0068 2.03678C17.3044 1.73915 17.3044 1.27085 17.0068 0.973223L16.6532 1.32678C16.7556 1.42915 16.7556 1.58085 16.6532 1.68322L17.0068 2.03678ZM3.5 8.75C2.53193 8.75 1.75 9.53193 1.75 10.5H2.25C2.25 9.80807 2.80807 9.25 3.5 9.25V8.75ZM5.25 10.5C5.25 9.53193 4.46807 8.75 3.5 8.75V9.25C4.19193 9.25 4.75 9.80807 4.75 10.5H5.25ZM5.25 17.5V10.5H4.75V17.5H5.25ZM3.5 19.25C4.46807 19.25 5.25 18.4681 5.25 17.5H4.75C4.75 18.1919 4.19193 18.75 3.5 18.75V19.25ZM1.75 17.5C1.75 18.4681 2.53193 19.25 3.5 19.25V18.75C2.80807 18.75 2.25 18.1919 2.25 17.5H1.75ZM1.75 10.5V17.5H2.25V10.5H1.75ZM5.75 19C5.75 19.6881 6.31193 20.25 7 20.25V19.75C6.58807 19.75 6.25 19.4119 6.25 19H5.75ZM5.75 9V19H6.25V9H5.75ZM18 8.75H6V9.25H18V8.75ZM18.25 19V9H17.75V19H18.25ZM17 20.25C17.6881 20.25 18.25 19.6881 18.25 19H17.75C17.75 19.4119 17.4119 19.75 17 19.75V20.25ZM16 20.25H17V19.75H16V20.25ZM16.25 23.5V20H15.75V23.5H16.25ZM14.5 25.25C15.4681 25.25 16.25 24.4681 16.25 23.5H15.75C15.75 24.1919 15.1919 24.75 14.5 24.75V25.25ZM12.75 23.5C12.75 24.4681 13.5319 25.25 14.5 25.25V24.75C13.8081 24.75 13.25 24.1919 13.25 23.5H12.75ZM12.75 20V23.5H13.25V20H12.75ZM11 20.25H13V19.75H11V20.25ZM11.25 23.5V20H10.75V23.5H11.25ZM9.5 25.25C10.4681 25.25 11.25 24.4681 11.25 23.5H10.75C10.75 24.1919 10.1919 24.75 9.5 24.75V25.25ZM7.75 23.5C7.75 24.4681 8.53193 25.25 9.5 25.25V24.75C8.80807 24.75 8.25 24.1919 8.25 23.5H7.75ZM7.75 20V23.5H8.25V20H7.75ZM7 20.25H8V19.75H7V20.25ZM19.25 10.5C19.25 9.80807 19.8081 9.25 20.5 9.25V8.75C19.5319 8.75 18.75 9.53193 18.75 10.5H19.25ZM19.25 17.5V10.5H18.75V17.5H19.25ZM20.5 18.75C19.8081 18.75 19.25 18.1919 19.25 17.5H18.75C18.75 18.4681 19.5319 19.25 20.5 19.25V18.75ZM21.75 17.5C21.75 18.1919 21.1919 18.75 20.5 18.75V19.25C21.4681 19.25 22.25 18.4681 22.25 17.5H21.75ZM21.75 10.5V17.5H22.25V10.5H21.75ZM20.5 9.25C21.1919 9.25 21.75 9.80807 21.75 10.5H22.25C22.25 9.53193 21.4681 8.75 20.5 8.75V9.25ZM9 6.25H10V5.75H9V6.25ZM8.75 5V6H9.25V5H8.75ZM10 4.75H9V5.25H10V4.75ZM10.25 6V5H9.75V6H10.25ZM15 5.75H14V6.25H15V5.75ZM14.75 5V6H15.25V5H14.75ZM14 5.25H15V4.75H14V5.25ZM14.25 6V5H13.75V6H14.25Z" fill="#757575"/>
</g>
</g>
</svg>
