<svg width="32" height="32" viewBox="0 0 32 32" fill="none" xmlns="http://www.w3.org/2000/svg">
<path fill-rule="evenodd" clip-rule="evenodd" d="M10.7426 4C7.01878 4 4 7.01878 4 10.7426V21.2574C4 24.9812 7.01878 28 10.7426 28H21.2574C24.9812 28 28 24.9812 28 21.2574V10.7426C28 7.01878 24.9812 4 21.2574 4H10.7426ZM10.6484 6.21618C8.20056 6.21618 6.21618 8.20056 6.21618 10.6484V21.3517C6.21618 23.7996 8.20056 25.784 10.6484 25.784H21.3046C23.7524 25.784 25.7368 23.7996 25.7368 21.3517V10.6484C25.7368 8.20056 23.7524 6.21618 21.3046 6.21618H10.6484Z" fill="#FF3741"/>
<path fill-rule="evenodd" clip-rule="evenodd" d="M15.9999 22.2003C19.3982 22.2003 22.1531 19.4454 22.1531 16.047C22.1531 12.6487 19.3982 9.89378 15.9999 9.89378C12.6015 9.89378 9.84665 12.6487 9.84665 16.047C9.84665 19.4454 12.6015 22.2003 15.9999 22.2003ZM15.9998 20.0315C18.2263 20.0315 20.0313 18.2265 20.0313 16C20.0313 13.7735 18.2263 11.9686 15.9998 11.9686C13.7733 11.9686 11.9684 13.7735 11.9684 16C11.9684 18.2265 13.7733 20.0315 15.9998 20.0315Z" fill="#FF3741"/>
<circle cx="22.4598" cy="9.58747" r="1.43811" fill="#FF3741"/>
</svg>
